<svg xmlns="http://www.w3.org/2000/svg" xmlns:xlink="http://www.w3.org/1999/xlink" width="2000" zoomAndPan="magnify" viewBox="0 0 1500 1499.999933" height="2000" preserveAspectRatio="xMidYMid meet" version="1.0"><defs><g/><clipPath id="2020255038"><path d="M 347.566406 652.105469 L 550.816406 652.105469 L 550.816406 855.355469 L 347.566406 855.355469 Z M 347.566406 652.105469 " clip-rule="nonzero"/></clipPath><clipPath id="c4882cd343"><rect x="0" width="657" y="0" height="419"/></clipPath></defs><g clip-path="url(#2020255038)"><path fill="#323233" d="M 550.652344 652.105469 L 347.566406 652.105469 L 347.566406 855.191406 L 550.652344 855.191406 Z M 375.386719 679.929688 L 522.726562 679.929688 L 522.726562 827.269531 L 494.902344 827.269531 L 494.902344 727.453125 L 395.085938 827.269531 L 375.386719 807.570312 L 475.203125 707.753906 L 375.386719 707.753906 Z M 375.386719 679.929688 " fill-opacity="1" fill-rule="evenodd"/></g><g transform="matrix(1, 0, 0, 1, 550, 538)"><g clip-path="url(#c4882cd343)"><g fill="#323233" fill-opacity="1"><g transform="translate(0.662877, 314.993434)"><g><path d="M 140.390625 -114.136719 C 140.390625 -99.871094 140.675781 -85.320312 140.960938 -71.050781 C 134.398438 -82.464844 127.550781 -93.59375 120.417969 -105.007812 L 59.921875 -203.167969 L 18.546875 -203.167969 L 18.546875 0 L 60.777344 0 L 60.777344 -89.027344 C 60.777344 -103.011719 60.777344 -117.5625 60.492188 -131.828125 C 67.628906 -119.84375 74.761719 -107.859375 82.179688 -95.875 L 141.246094 0 L 182.621094 0 L 182.621094 -203.167969 L 140.390625 -203.167969 Z M 140.390625 -114.136719 "/></g></g></g><g fill="#323233" fill-opacity="1"><g transform="translate(186.078542, 314.993434)"><g><path d="M 147.523438 0 C 143.242188 -7.417969 141.816406 -17.121094 141.816406 -30.816406 L 141.816406 -95.875 C 141.816406 -132.117188 120.417969 -150.664062 78.183594 -150.664062 C 38.523438 -150.664062 18.261719 -135.539062 15.410156 -103.296875 L 52.21875 -102.726562 C 54.214844 -116.421875 61.921875 -122.128906 78.46875 -122.128906 C 94.449219 -122.128906 103.296875 -116.992188 103.296875 -106.148438 L 103.296875 -95.304688 L 51.933594 -85.03125 C 22.257812 -79.039062 7.132812 -63.917969 7.132812 -40.519531 C 7.132812 -13.695312 27.109375 4.28125 58.210938 4.28125 C 77.613281 4.28125 93.59375 -2.851562 103.582031 -14.839844 C 104.4375 -9.703125 105.578125 -5.136719 106.71875 0 Z M 69.625 -25.394531 C 54.785156 -25.394531 46.511719 -32.53125 46.511719 -43.085938 C 46.511719 -52.789062 53.359375 -59.066406 65.628906 -61.636719 L 103.296875 -69.625 L 103.296875 -58.78125 C 103.296875 -37.09375 88.742188 -25.394531 69.625 -25.394531 Z M 69.625 -25.394531 "/></g></g></g><g fill="#323233" fill-opacity="1"><g transform="translate(329.275014, 314.993434)"><g><path d="M 91.882812 -117.5625 L 91.882812 -147.238281 L 64.488281 -146.382812 L 64.488281 -192.609375 L 24.253906 -192.609375 L 24.253906 -146.667969 L 4.28125 -147.238281 L 4.28125 -117.5625 L 24.253906 -118.417969 L 24.253906 -41.375 C 24.253906 -11.699219 35.953125 0 65.628906 0 L 91.882812 0 L 91.882812 -32.242188 L 78.46875 -32.242188 C 68.484375 -32.242188 64.488281 -36.238281 64.488281 -46.226562 L 64.488281 -118.417969 Z M 91.882812 -117.5625 "/></g></g></g><g fill="#323233" fill-opacity="1"><g transform="translate(411.139604, 314.993434)"><g><path d="M 57.640625 -166.640625 L 57.640625 -203.167969 L 17.40625 -203.167969 L 17.40625 -166.640625 Z M 57.355469 0 L 57.355469 -147.238281 L 17.121094 -147.238281 L 17.121094 0 Z M 57.355469 0 "/></g></g></g><g fill="#323233" fill-opacity="1"><g transform="translate(469.897771, 314.993434)"><g><path d="M 88.457031 -103.011719 L 74.191406 -38.808594 L 59.066406 -103.011719 L 46.796875 -147.238281 L 4.28125 -147.238281 L 52.789062 0 L 93.878906 0 L 142.386719 -147.238281 L 101.867188 -147.238281 Z M 88.457031 -103.011719 "/></g></g></g><g fill="#323233" fill-opacity="1"><g transform="translate(600.837175, 314.993434)"><g/></g></g></g></g></svg>