<svg width="1453" height="619" viewBox="0 0 1453 619" fill="none" xmlns="http://www.w3.org/2000/svg">
<g clip-path="url(#clip0_223_2)">
<mask id="mask0_223_2" style="mask-type:luminance" maskUnits="userSpaceOnUse" x="-1" y="168" width="345" height="301">
<path d="M-0.149414 168.508H343.614V468.505H-0.149414V168.508Z" fill="white"/>
</mask>
<g mask="url(#mask0_223_2)">
<path fill-rule="evenodd" clip-rule="evenodd" d="M343.337 168.508H-0.149414V468.263H343.337V168.508ZM46.904 209.576H296.105V427.05H249.045V279.721L80.222 427.05L46.904 397.974L215.727 250.645H46.904V209.576Z" fill="#323233"/>
</g>
<mask id="mask1_223_2" style="mask-type:luminance" maskUnits="userSpaceOnUse" x="342" y="0" width="1112" height="619">
<path d="M1453.44 0.0878906H342.233V618.532H1453.44V0.0878906Z" fill="white"/>
</mask>
<g mask="url(#mask1_223_2)">
<path d="M580.802 296.553C580.802 317.609 581.284 339.086 581.767 360.148C570.667 343.3 559.086 326.874 547.022 310.027L444.703 165.143H374.724V465.018H446.149V333.614C446.149 312.973 446.149 291.496 445.667 270.44C457.738 288.129 469.802 305.818 482.348 323.507L582.249 465.018H652.228V165.143H580.802V296.553Z" fill="#323233"/>
<path d="M906.466 465.019C899.225 454.07 896.813 439.748 896.813 419.534V323.507C896.813 270.014 860.622 242.639 789.189 242.639C722.111 242.639 687.841 264.963 683.018 312.553L745.274 313.394C748.65 293.18 761.685 284.757 789.671 284.757C816.7 284.757 831.664 292.338 831.664 308.344V324.349L744.792 339.513C694.6 348.357 669.019 370.676 669.019 405.212C669.019 444.805 702.806 471.338 755.409 471.338C788.225 471.338 815.253 460.81 832.146 443.115C833.593 450.697 835.522 457.437 837.452 465.019H906.466ZM774.714 427.536C749.615 427.536 735.621 417.003 735.621 401.424C735.621 387.102 747.203 377.837 767.955 374.043L831.664 362.252V378.258C831.664 410.268 807.047 427.536 774.714 427.536Z" fill="#323233"/>
<path d="M1054.55 291.496V247.694L1008.22 248.957V180.727H940.169V248.536L906.389 247.694V291.496L940.169 290.233V403.949C940.169 447.75 959.956 465.018 1010.15 465.018H1054.55V417.429H1031.86C1014.98 417.429 1008.22 411.53 1008.22 396.788V290.233L1054.55 291.496Z" fill="#323233"/>
<path d="M1135.1 219.057V165.143H1067.05V219.057H1135.1ZM1134.62 465.018V247.695H1066.57V465.018H1134.62Z" fill="#323233"/>
<path d="M1286.6 312.974L1262.47 407.738L1236.89 312.974L1216.14 247.695H1144.23L1226.27 465.019H1295.77L1377.81 247.695H1309.28L1286.6 312.974Z" fill="#323233"/>
</g>
</g>
<defs>
<clipPath id="clip0_223_2">
<rect width="1453" height="619" fill="white"/>
</clipPath>
</defs>
</svg>
